<svg
  xmlns="http://www.w3.org/2000/svg"
  aria-hidden="true"
>
  <defs>
    <symbol id="icon-arrow_back" viewBox="0 0 32 32">
      <path
        d="M21.333 29.333 8 16 21.333 2.667 23.7 5.034 12.733 16.001 23.7 26.968l-2.367 2.367z"
      />
    </symbol>

    <symbol id="icon-arrow_circle_up" viewBox="0 0 32 32">
      <path
        d="m11.243 17.361 1.2 2.078 4.33-2.5-.695 2.595 2.322.622 1.757-6.557-6.557-1.757-.622 2.322 2.595.695-4.33 2.5zM4.915 22.4q-1.317-2.28-1.617-4.801c-.3-2.521-.087-3.318.34-4.911q.64-2.39 2.161-4.423C7.32 6.232 8.08 5.793 9.6 4.916q2.31-1.334 4.816-1.626c2.506-.292 3.303-.079 4.897.348q2.39.64 4.423 2.161C25.769 7.32 26.208 8.08 27.085 9.6q1.333 2.31 1.626 4.816c.293 2.506.079 3.303-.348 4.897q-.64 2.39-2.147 4.415c-1.507 2.025-2.276 2.469-3.816 3.358q-2.28 1.317-4.801 1.617c-2.521.3-3.318.087-4.911-.34q-2.39-.64-4.415-2.147C6.248 24.709 5.804 23.94 4.915 22.4"
      />
    </symbol>

    <symbol id="icon-arrow_next" viewBox="0 0 32 32">
      <path
        d="M10.367 29.333 23.7 16 10.367 2.667 8 5.034l10.967 10.967L8 26.968l2.367 2.367z"
      />
    </symbol>

    <symbol id="icon-boat_railway" viewBox="0 0 32 32">
      <path
        d="M11.6 24.6q1.4.8 2.617 1.45c1.217.65 1.839.494 3.083.183l-2.467 2.5q-.733-.1-1.45-.417c-.717-.317-1.072-.517-1.783-.917q-1.433.8-2.367 1.1c-.934.3-1.3.3-2.033.3H4.533v-2.4H7.2q1.3 0 2.3-.583c1-.583 1.367-.794 2.1-1.217zm7.6 4.2 2.4-2.4q-1 0-1.7-.7c-.7-.7-.7-1.033-.7-1.7v-5.433q0-2.2 1.55-3.583c1.55-1.383 2.383-1.383 4.05-1.383q2.5 0 4.05 1.383c1.55 1.383 1.55 2.117 1.55 3.583V24q0 1-.7 1.7c-.7.7-1.033.7-1.7.7l2.4 2.4zm5.6-5.6q.333 0 .567-.233c.234-.233.233-.344.233-.567q0-.333-.233-.567c-.233-.234-.345-.233-.567-.233s-.411.078-.567.233Q24 22.066 24 22.4c0 .334.078.411.233.567a.77.77 0 0 0 .567.233m-4-3.2h8v-1.433q0-.267-.05-.5a6 6 0 0 0-.117-.467h-7.7q-.066.267-.1.5c-.034.233-.033.311-.033.467zm-8-16.8h6.4v2.4h3.2q1 0 1.7.7c.7.7.7 1.033.7 1.7v3.2q-.6 0-1.317.083c-.717.083-.839.128-1.083.217V8H9.6v4.1l6.4-1.7 5.3 1.433q-2.267.966-3.383 2.583c-1.116 1.617-1.117 2.461-1.117 4.15v5.367q-1.134.167-2.167-.133c-1.033-.3-1.3-.556-1.833-1.067L11.6 21.6l-1.033 1.033A4.62 4.62 0 0 1 7.267 24H6.4l-2.133-9.267q-.1-.467.15-.883c.25-.416.406-.461.717-.55l2.067-.567V8q0-1 .7-1.7c.7-.7 1.033-.7 1.7-.7h3.2V3.2z"
      />
    </symbol>

    <symbol id="icon-delivery_truck" viewBox="0 0 32 32">
      <path
        d="m.667 17.767.667-2.667h7.333L8 17.767zm8.666 8.9q-1.667 0-2.833-1.167c-1.166-1.167-1.167-1.722-1.167-2.833H2l.667-2.9h6.9l1.2-4.867h2.8l1.667-6.667H6.001l.2-.8q.2-.933.917-1.517c.717-.584 1.039-.583 1.683-.583h15.2l-1.233 5.333h3.9l4 5.333-1.333 6.667h-2.667q0 1.667-1.167 2.833c-1.167 1.166-1.722 1.167-2.833 1.167q-1.667 0-2.833-1.167c-1.166-1.167-1.167-1.722-1.167-2.833h-5.333q0 1.667-1.167 2.833c-1.167 1.166-1.722 1.167-2.833 1.167zm-6-13.767L4 10.233h8.667L12 12.9zm6 11.1q.567 0 .95-.383c.383-.383.383-.572.383-.95q0-.566-.383-.95c-.383-.384-.572-.383-.95-.383q-.566 0-.95.383c-.384.383-.383.572-.383.95q0 .566.383.95c.383.384.572.383.95.383m13.334 0q.566 0 .95-.383c.384-.383.383-.572.383-.95q0-.566-.383-.95c-.383-.384-.572-.383-.95-.383q-.566 0-.95.383c-.384.383-.383.572-.383.95q0 .566.383.95c.383.384.572.383.95.383m-1.434-6.667h6.433l.133-.7-2.467-3.3h-3.167l-.933 4z"
      />
    </symbol>

    <symbol id="icon-corporate_fare" viewBox="0 0 32 32">
      <path
        d="M3.2 27.2V5.6H16v4.8h12.8v16.8zm2.4-2.4h8v-2.4h-8zm0-4.8h8v-2.4h-8zm0-4.8h8v-2.4h-8zm0-4.8h8V8h-8zM16 24.8h10.4v-12H16zm2.4-7.2v-2.4H24v2.4zm0 4.8V20H24v2.4z"
      />
    </symbol>

    <symbol id="icon-document_search" viewBox="0 0 32 32">
      <path
        d="M7.2 28.8q-.99 0-1.695-.705C4.8 27.39 4.8 27.06 4.8 26.4V5.6q0-.99.705-1.695C6.21 3.2 6.54 3.2 7.2 3.2h10.4L24 9.6v4.967q-.6-.133-1.2-.167c-.6-.034-.8-.011-1.2.033V11.2H16V5.6H7.2v20.8h8.267q.4.7.933 1.317c.533.617.756.772 1.2 1.083zm15.192-3.2q1.341 0 2.274-.926c.933-.926.933-1.373.933-2.267q0-1.341-.928-2.274c-.928-.933-1.376-.933-2.272-.933q-1.067 0-2.133.8c-1.066.8-1.067 1.333-1.067 2.4q0 1.344.926 2.272c.926.928 1.373.928 2.267.928m6.308 4.8-3.267-3.3q-.667.433-1.434.667c-.767.234-1.039.233-1.582.233q-2.35 0-3.983-1.633c-1.633-1.633-1.633-2.411-1.633-3.967s.544-2.878 1.633-3.967q1.633-1.633 3.967-1.633c2.334 0 2.878.544 3.967 1.633q1.633 1.633 1.633 3.967 0 .82-.233 1.594c-.233.774-.378.995-.667 1.44l3.3 3.267-1.7 1.7z"
      />
    </symbol>

    <symbol id="icon-kid_star" viewBox="0 0 32 32">
      <path
        d="M10.467 8.733 14.134 4q.366-.466.867-.7c.501-.234.678-.233 1.033-.233q.533 0 1.017.233c.484.233.606.389.85.7l3.667 4.733 5.6 1.833q.767.267 1.2.883c.433.616.433.872.433 1.383q0 .366-.1.717c-.1.351-.178.461-.334.683l-3.6 5.033.133 5.4q0 1.033-.7 1.75c-.7.717-1.022.717-1.667.717q-.067 0-.633-.1L16 25.399l-5.9 1.633q-.167.067-.317.083a2.4 2.4 0 0 1-.317.017q-.967 0-1.683-.717c-.716-.717-.706-1.061-.683-1.75l.133-5.4-3.6-5.033q-.234-.333-.333-.667a2 2 0 0 1-.1-.7q0-.767.433-1.4c.433-.633.7-.722 1.233-.9l5.6-1.833z"
      />
    </symbol>

    <symbol id="icon-menu" viewBox="0 0 32 32">
      <path
        d="M4.8 27.2v-2.4h22.4v2.4zm0-10v-2.4h22.4v2.4zm0-10V4.8h22.4v2.4z"
      />
    </symbol>
  </defs>
</svg>